PathFileType        4      (X/Y/Z)      C:\Users\pc\Desktop\IMUTRC\Sujet_07\Sujet_07_velo_60.trc         
DataRate	CameraRate	NumFrames	NumMarkers	Units	OrigDataRate	OrigDataStartFrame	OrigNumFrames
60.0	60.0	4	64	mm	60.0	351	935
Frame#	Time	pHipOrigin			pRightASI			pLeftASI			pRightCSI			pLeftCSI			pRightIschialTub			pLeftIschialTub			pSacrum			pL5SpinalProcess			pL3SpinalProcess			pT12SpinalProcess			pIJ			pT4SpinalProcess			pT8SpinalProcess			pPX			pC7SpinalProcess			pTopOfHead			pRightAuricularis			pLeftAuricularis			pBackOfHead			pRightAcromion			pLeftAcromion			pRightArmLatEpicondyle			pRightArmMedEpicondyle			pLeftArmLatEpicondyle			pLeftArmMedEpicondyle			pRightUlnarStyloid			pRightRadialStyloid			pRightOlecranon			pLeftUlnarStyloid			pLeftRadialStyloid			pLeftOlecranon			pRightTopOfHand			pRightPinky			pRightBallHand			pLeftTopOfHand			pLeftPinky			pLeftBallHand			pRightGreaterTrochanter			pRightKneeLatEpicondyle			pRightKneeMedEpicondyle			pRightPatella			pLeftGreaterTrochanter			pLeftKneeLatEpicondyle			pLeftKneeMedEpicondyle			pLeftPatella			pRightTibialTub			pRightLatMalleolus			pRightMedMalleolus			pLeftTibialTub			pLeftLatMalleolus			pLeftMedMalleolus			pRightHeelFoot			pRightFirstMetatarsal			pRightFifthMetatarsal			pRightPivotFoot			pRightHeelCenter			pRightToe			pLeftHeelFoot			pLeftFirstMetatarsal			pLeftFifthMetatarsal			pLeftPivotFoot			pLeftHeelCenter			pLeftToe			
		X1	Y1	Z1	X2	Y2	Z2	X3	Y3	Z3	X4	Y4	Z4	X5	Y5	Z5	X6	Y6	Z6	X7	Y7	Z7	X8	Y8	Z8	X9	Y9	Z9	X10	Y10	Z10	X11	Y11	Z11	X12	Y12	Z12	X13	Y13	Z13	X14	Y14	Z14	X15	Y15	Z15	X16	Y16	Z16	X17	Y17	Z17	X18	Y18	Z18	X19	Y19	Z19	X20	Y20	Z20	X21	Y21	Z21	X22	Y22	Z22	X23	Y23	Z23	X24	Y24	Z24	X25	Y25	Z25	X26	Y26	Z26	X27	Y27	Z27	X28	Y28	Z28	X29	Y29	Z29	X30	Y30	Z30	X31	Y31	Z31	X32	Y32	Z32	X33	Y33	Z33	X34	Y34	Z34	X35	Y35	Z35	X36	Y36	Z36	X37	Y37	Z37	X38	Y38	Z38	X39	Y39	Z39	X40	Y40	Z40	X41	Y41	Z41	X42	Y42	Z42	X43	Y43	Z43	X44	Y44	Z44	X45	Y45	Z45	X46	Y46	Z46	X47	Y47	Z47	X48	Y48	Z48	X49	Y49	Z49	X50	Y50	Z50	X51	Y51	Z51	X52	Y52	Z52	X53	Y53	Z53	X54	Y54	Z54	X55	Y55	Z55	X56	Y56	Z56	X57	Y57	Z57	X58	Y58	Z58	X59	Y59	Z59	X60	Y60	Z60	X61	Y61	Z61	X62	Y62	Z62	X63	Y63	Z63	X64	Y64	Z64	
351	5.833	0.0	1249.97763	7.653905517926474E-14	115.29073929998626	1338.64117	121.69734189024598	82.49059266702038	1311.16587	-159.36307764574795	90.52951761334981	1417.42845	91.36707590897663	63.48493900895631	1394.85415	-139.81067987892368	-67.18081332402322	1218.7152	70.02386197100853	-80.60166590986196	1207.42805	-45.59219946942666	-59.04242057004858	1293.7896	2.610812229174031	12.900729452575346	1381.1165	-13.730838866560651	95.98674785955103	1470.59687	-31.699204146045506	175.3168973542989	1549.4584	-48.06323364298337	442.21530300199356	1529.78015	-83.80935268391879	347.38740388257366	1655.72098	-78.62233343406753	263.9043523165943	1615.6219	-64.57024655089866	330.54321864745134	1470.22558	-64.59588879473411	402.0403023667293	1680.3745	-86.25405038952913	677.2926263965859	1674.21112	-105.4299405106524	579.8098237020542	1653.419	-29.406733379511635	572.3923182526628	1665.52298	-173.5397370757464	568.1891938781528	1715.57258	-96.30907210856383	422.62242505506913	1614.73081	100.72084738665022	371.5410739371297	1603.3694	-267.6362171578134	457.976786540286	1326.53719	77.05963702509828	422.93184073511503	1324.38372	22.95706370815213	389.77535334134075	1310.42329	-273.22875552531383	351.0205644410772	1302.55199	-222.29165211345102	540.5110505528249	1082.22979	36.13597839007725	589.0080461565763	1105.76944	31.295297989935346	415.8265280827561	1317.77479	54.8678062256998	443.3720757186828	1053.64063	-250.5162218020341	492.9552203123492	1071.09115	-263.4758274372984	345.8172584500335	1302.25496	-243.13080176963578	732.054549349749	1054.60597	133.43314661429656	653.8754871099154	1028.8386	85.72409450177796	599.1057829519056	1065.22481	40.98376481896742	578.619126094896	989.6306	-405.3154046274631	525.1261713854599	980.42266	-327.2173692237387	495.0928911068604	1028.98711	-271.930861863248	49.559037879985055	1250.34892	170.34982841763545	433.87557787514487	1034.18514	117.76453495694206	426.0854499237524	1027.4277	32.49487236621619	449.59353528041714	1074.06146	67.07485413980687	-13.094585093612167	1216.48747	-176.47831331382963	182.38300032296192	820.17483	-220.10436299622108	203.0775698079355	813.78868	-136.9877887849598	233.91221820425153	841.4125	-184.00880644090134	472.5910986044404	987.77416	73.578626012316	296.6674662044744	621.6101	154.47497558112738	292.26010765729313	615.22395	89.33634451201847	230.35337113302	765.44701	-187.34968249716064	-6.517982448330315	425.79289	-195.14656323664974	6.837753422056316	421.33744	-131.10099633662952	242.4562696167565	542.6743	127.03466241015947	407.1152564404822	516.98119	95.79781130865226	404.56160127146086	524.03565	174.92399180640803	428.133047322833	517.35247	135.28516963756263	283.2253352520207	541.85747	128.45040935277146	519.3361664569144	503.02076	139.49525348857654	-73.88191598085017	370.99081	-148.1224077606325	75.1264792391915	290.34709	-145.8654790360482	57.3442802630526	293.31739	-223.18482693907634	85.6590064120387	280.91638	-188.3163312315193	-37.211202683452655	355.69375	-157.13288634151667	163.2906672172096	234.87669	-207.9761120220288	
352	5.85	0.0	1249.97763	7.653905517926474E-14	115.5678677327023	1338.4184	121.5143613645599	81.96617266213323	1311.68567	-159.49435555277788	90.58387104606585	1417.27993	91.56995300194671	62.94062243678519	1395.29969	-139.61047592052154	-66.88645279833713	1218.41817	70.10807458477753	-80.71305590986196	1207.42805	-45.39926632997157	-59.12662452356355	1293.71534	2.905177754860124	12.715084452575347	1381.19076	-13.409292294389529	95.70961076658097	1470.74538	-31.516228620359424	175.04971287509784	1549.68118	-48.04599655001329	441.77508695062136	1530.00292	-84.23499611663483	347.01149887768656	1655.94376	-79.01084686678355	263.5828057444232	1615.84467	-64.75589155089867	330.15736968904923	1470.44835	-64.8186587947341	401.63721631535714	1680.59727	-86.74400486873022	676.8424663916986	1674.0626	-105.68984051065242	579.2681802644511	1653.49326	-29.805199425996634	572.1178542942606	1665.52298	-173.9554315549475	567.8504188732655	1715.64684	-96.76189658776495	422.34796109666695	1614.87932	100.30515290744914	370.63080997384037	1603.51791	-267.9902737250974	457.61083048891385	1326.6857	76.50537149941218	422.5658846837429	1324.60649	22.402798182466054	389.3795517691696	1310.64607	-273.28578709259784	350.9091794410772	1302.70051	-222.0987276342499	540.2909450271388	1082.45256	35.92315234359223	588.8250706308902	1105.99221	31.01816089696528	415.46057203138395	1317.92331	54.31354070001375	443.43637810491384	1053.93766	-250.4790968020341	492.9923503123492	1071.46244	-263.54013848378344	345.5772600173175	1302.40348	-243.0121322904348	731.760183824063	1054.97726	133.3489426607816	653.6825539704604	1029.20989	85.61270450177798	598.9499884727045	1065.52184	40.80806877248242	578.6834371413811	989.92763	-405.2782746274631	525.1261713854599	980.71969	-327.2173692237387	495.15720215334545	1029.28414	-271.89373186324804	48.97759996806798	1248.26971	170.6143484225226	427.3961828919962	1021.78413	118.73963627006229	420.1404188990059	1016.14055	33.435508153650325	444.6774413584151	1061.7347	68.60955858749507	-12.983200093612169	1217.3043	-176.67123779303068	192.39354002751105	826.48673	-223.92824637568566	213.49386003817068	819.95206	-140.9203926901105	243.45269633662951	848.68974	-187.76109929467987	467.93757415675225	977.00682	74.06448678997589	303.33518432219097	605.19918	152.57964903069484	298.8263760682706	599.18431	87.46819400807094	238.05074163696753	770.64504	-190.87991929467987	-12.777271905792801	441.01569	-193.9586358770445	0.8456434437948843	436.6345	-129.93029740974026	251.76136432130562	524.62971	124.4326456126403	417.14036376368745	505.02572	92.83979607352988	414.3838265016961	511.26335	172.02033866425577	438.2224570322693	505.76829	132.36427940244025	292.4661139100848	525.22378	125.81127121550631	529.8684566920367	494.5554	136.401331681283	-81.55138649457203	388.51559	-146.7196951637149	65.04968295758412	303.56494	-143.70901589878306	47.47035241416124	306.53524	-221.0827222345272	75.34221169771527	293.54016	-186.04119861505313	-45.323557383114625	372.10467	-155.55715583268199	151.6551748793429	245.12423	-205.34762812176527	
353	5.867	0.0	1249.97763	7.653905517926474E-14	115.77074982567235	1338.26988	121.45999927158982	81.36748899699204	1312.27973	-159.49702502709178	90.57392709255086	1417.20568	91.73569643466273	62.29487347838307	1395.8195	-139.38308591563438	-66.62921727265103	1218.12114	70.25658958477753	-80.75018090986195	1207.42805	-45.33496394374057	-59.146526090847516	1293.64108	3.2366682805462164	12.465128406090313	1381.26501	-13.124875722218402	95.36817128737991	1470.96816	-31.370378094673338	174.57965130292672	1549.90395	-47.97440602432722	441.2705648527642	1530.29995	-84.69777820960486	346.46984677982937	1656.24079	-79.4093179132686	263.058385739536	1616.1417	-64.88716945792864	329.6972570703931	1470.74538	-64.9128203620181	401.1326942174999	1680.8943	-87.20678696170025	676.3379392938415	1674.0626	-106.15261394336842	578.6993421201089	1653.71603	-30.305102858712626	571.5861511499184	1665.59724	-174.5196546944026	567.3558407289233	1715.79536	-97.39042211345104	421.9720474315258	1614.95358	99.91663447473313	369.554780257327	1603.66643	-268.3542755856423	457.21768839105664	1326.90847	75.84967358749509	422.0713065394006	1324.82926	21.77427265677994	388.89954124348355	1310.86884	-273.04844447394163	350.7507204875622	1302.99754	-221.6757486758478	540.0337095014527	1082.67533	35.774637343592225	588.503524058719	1106.28924	30.83251589696526	415.0946159800117	1318.14608	53.75927517432765	443.49074519788394	1054.30894	-250.27622336931807	493.0467124053192	1071.90799	-263.33725639081337	345.2901739708325	1302.62625	-242.6634046717786	731.4286882983769	1055.42281	133.3290497537517	653.3881884447742	1029.50692	85.52850054826297	598.5913119005334	1065.81887	40.686734818967416	578.6734931878661	990.29892	-405.1125311947472	525.18053347843	981.09098	-327.0144871307687	495.2115555860614	1029.72969	-271.69085477027795	48.2032239166958	1246.04198	170.76748708766377	419.5536808061033	1007.89796	119.69946834129381	412.8051083852841	1003.29399	34.25943865271075	438.49969138015365	1047.70002	70.10179542630142	-12.770374047127135	1218.34391	-176.89134331871676	202.9682892112612	833.68971	-228.28382923923846	224.372927361376	826.93227	-145.3575100328644	253.52025394820856	856.93233	-191.98078058606154	462.03234126657367	964.82857	74.34215018629189	309.2755966817963	587.45162	150.60739300594838	304.5738589486748	581.8823	85.38456164357852	246.31233028037016	776.80841	-194.94185057628724	-18.042084786197037	457.94642	-192.7110124758413	-4.013418910923249	453.49096	-128.7913945342232	260.0248984952815	505.61978	122.00100457323236	425.8394903238943	491.28807	89.8021868897797	423.14726410838796	496.85738	169.01985948050554	446.99583859247616	492.32767	129.19805678597405	300.73959703757566	507.47622	123.2138780831283	538.9289242987286	483.86231	132.88638144616064	-88.03345961228858	407.82256	-145.14591518545345	56.00449325303501	318.56496	-141.55716776640506	38.462301369866154	321.60952	-218.99518014863426	65.96552646748006	308.02039	-183.90924338970504	-52.27568341274824	390.29777	-153.91178032873444	140.8583696393334	257.22821	-202.83515288664293	
354	5.883	0.0	1249.97763	7.653905517926474E-14	116.01074825838839	1338.12137	121.34132979238878	80.74163294561986	1312.94805	-159.60113054789073	90.5268531390359	1417.05716	91.96575091386379	61.54767481324188	1396.41356	-139.12851986426222	-66.33485174696494	1217.74985	70.34079353829249	-80.82444090986196	1207.42805	-45.20634185077051	-59.23073004436249	1293.49257	3.531033806232302	12.215177359605281	1381.33927	-12.840467810301316	94.88816076169381	1471.19093	-31.13303547601718	174.0452873445246	1550.20098	-47.93994049864112	440.6274717084219	1530.7455	-85.06906820960488	345.8267622957411	1656.61207	-79.7806029132686	262.4053486416788	1616.51299	-65.0927160252126	329.10852601902087	1471.11667	-65.08122826904801	400.43524264044163	1681.26559	-87.78094539441632	675.6776177167831	1673.98834	-106.79108342256957	578.0018955430506	1653.9388	-30.879269951682726	570.92582957286	1665.6715	-175.15812417360362	566.79696019835	1716.01813	-98.05607263913707	421.3660929474376	1615.02784	99.4810384282481	368.21158472186664	1603.96346	-268.7010526737252	456.8616812931994	1327.2055	75.12965596883893	421.5396033950584	1325.12629	21.210049517324844	388.4467167642824	1311.24013	-272.7096694690545	350.5823125805323	1303.44308	-221.08701762447558	539.5364755430506	1082.97236	35.74479182279328	588.0162340538319	1106.58627	30.636926943450373	414.60004649592355	1318.51737	53.13075464864155	443.59946572356995	1054.82875	-249.870472843632	492.9996297915502	1072.50205	-263.1072069116123	344.92883292434743	1302.99754	-242.1860636204065	730.8943156797206	1055.7941	133.36351027943775	652.8538244863721	1029.8782	85.5629660739491	598.1955053283622	1066.1159	40.629711911937456	578.5892892343513	990.74447	-404.8181656690611	525.224942957631	981.53653	-326.6458666050825	495.19166267903154	1030.24949	-271.3593592445919	47.4288528653236	1243.59148	170.9206170925509	410.2565895244959	992.67516	120.50544280364346	404.1166360620788	989.18506	34.90233415665828	431.13453034563287	1032.25445	71.42296854401795	-12.621859047127131	1219.53203	-177.14857884440286	214.09730392069747	841.85804	-233.0053681541635	235.8433865500133	834.80357	-150.2249081337295	264.0406496992427	866.14027	-196.53924054258448	454.8011326133967	951.23944	74.54021097372606	314.32296851082833	568.73871	148.54826855337302	309.4183623449908	563.54068	83.37979562371919	255.0738086962348	783.93714	-199.5726163419829	-22.062465043057955	476.28804	-191.68810960521137	-7.5266075956130365	471.75833	-127.90439323576439	267.01681033897495	485.94152	119.69263801791264	432.94546530215575	475.99101	86.70221719011774	430.4832935658505	481.04052	165.96696373435856	454.3046906637077	477.4019	126.04373365359605	307.6400254485531	488.76331	120.76694548132355	546.4333703234751	471.23852	129.2447596486415	-93.20677539972272	428.68894	-143.7597293980193	48.139425125544165	335.1244	-139.6671701646003	30.59723324237531	338.0947	-217.1051825468295	57.694707814303136	323.98577	-181.91052526221424	-58.02050181883856	409.97603	-152.42682296912915	130.93736783692705	270.74309	-200.50299370289272	
